<svg width="340" height="210" viewBox="0 0 340 210" xmlns="http://www.w3.org/2000/svg">
  <rect width="340" height="210" fill="white"/>
  <g fill="none" stroke="black" stroke-width="3" stroke-linecap="square">
    <path d="M40 115 L120 80 L205 85 L286 58"/>
    <path d="M90 126 L150 120 L230 140"/>
    <path d="M116 72 L160 42 L220 52"/>
    <path d="M80 153 L118 140 L148 163"/>
    <path d="M235 92 L290 112"/>
    <path d="M252 46 L303 30"/>
  </g>
  <g fill="black">
    <circle cx="40" cy="115" r="4"/><circle cx="120" cy="80" r="4"/>
    <circle cx="205" cy="85" r="4"/><circle cx="286" cy="58" r="4"/>
    <circle cx="90" cy="126" r="4"/><circle cx="150" cy="120" r="4"/>
    <circle cx="230" cy="140" r="4"/><circle cx="116" cy="72" r="4"/>
    <circle cx="160" cy="42" r="4"/><circle cx="220" cy="52" r="4"/>
    <circle cx="80" cy="153" r="4"/><circle cx="118" cy="140" r="4"/>
    <circle cx="148" cy="163" r="4"/><circle cx="252" cy="46" r="4"/>
    <circle cx="303" cy="30" r="4"/>
  </g>
  <g font-family="Courier New, monospace" font-size="10" fill="black">
    <text x="36" y="100">01</text><text x="130" y="74">02</text>
    <text x="210" y="78">03</text><text x="286" y="52">04</text>
    <text x="92" y="142">05</text><text x="225" y="154">06</text>
  </g>
</svg>